<svg width="1152" height="551" viewBox="0 0 1152 551" fill="none" xmlns="http://www.w3.org/2000/svg">
<path d="M1384.09 365.963C1365.96 481.508 1169.44 394.203 1066.37 478.747C1040.37 500.075 1026.37 533.111 991.13 543.512C973.616 548.668 953.331 547.1 933.915 544.441C720.327 491.419 657.718 495.579 462.151 546.722C266.061 578.556 154.9 398.187 -0.282564 330.758C-41.3586 316.191 -88.4394 310.326 -120.983 284.057C-198.832 214.546 -281.197 98.922 -40.0945 72.9418C35.0828 64.841 79.4815 38.9658 117.899 27.2336C328.689 -56.004 541.045 74.8015 744.957 142.916C890.939 210.46 1003.79 107.109 1136.66 135.855C1297.62 162.287 1399.08 270.416 1384.09 365.963Z" fill="#FFEDE2"/>
</svg>
