<svg xmlns="http://www.w3.org/2000/svg" width="292" height="52" viewBox="0 0 292 52" fill="none"><path fill="#2E2E2E" d="M252.209 1.324h19.107c3.805 0 7.098.57 9.878 1.71 2.802 1.138 4.956 2.825 6.46 5.058 1.504 2.233 2.256 4.99 2.256 8.271 0 2.735-.445 5.059-1.333 6.973-.889 1.914-2.142 3.498-3.76 4.75-1.595 1.254-3.464 2.268-5.606 3.043l-3.623 1.982h-16.269l-.069-8.647h12.1c1.663 0 3.042-.296 4.136-.889 1.093-.592 1.914-1.424 2.461-2.495.569-1.094.854-2.37.854-3.828 0-1.504-.285-2.803-.854-3.897a5.7 5.7 0 0 0-2.53-2.495c-1.093-.592-2.461-.888-4.101-.888h-7.964V51.09h-11.143V1.324Zm27.549 49.766-11.177-22.115 11.758-.034 11.348 21.636v.513h-11.929ZM239.72 1.324V51.09h-11.108V1.324h11.108ZM189.223 1.324l8.75 16.953 8.75-16.953h12.715l-14.151 24.678 14.527 25.088h-12.818l-9.023-17.261-8.989 17.26h-12.852l14.561-25.087-14.185-24.678h12.715ZM166.685 1.324V51.09h-11.108V1.324h11.108ZM143.087 1.324V51.09h-11.108L113.18 18.927V51.09h-11.143V1.324h11.143l18.833 32.163V1.324h11.074ZM71.843 10.792 58.992 51.09H47.097L65.52 1.324h7.52l-1.197 9.468ZM82.507 51.09 69.621 10.792 68.29 1.324h7.621L94.403 51.09H82.507Zm-.547-18.526v8.614H56.018v-8.614H81.96ZM30.404 34.41h11.074c-.182 3.418-1.117 6.437-2.803 9.058-1.663 2.597-3.976 4.637-6.938 6.118-2.962 1.458-6.483 2.187-10.562 2.187-3.258 0-6.175-.558-8.75-1.675-2.575-1.116-4.762-2.711-6.562-4.785C4.085 43.217 2.718 40.7 1.76 37.76.827 34.797.36 31.46.36 27.745v-3.042c0-3.714.49-7.052 1.47-10.015.98-2.962 2.38-5.491 4.204-7.588a18.322 18.322 0 0 1 6.562-4.819c2.552-1.116 5.4-1.675 8.545-1.675 4.238 0 7.816.764 10.732 2.29 2.917 1.527 5.173 3.623 6.768 6.29 1.618 2.665 2.586 5.707 2.905 9.125H30.438c-.091-1.936-.456-3.566-1.094-4.887a6.452 6.452 0 0 0-2.94-3.042c-1.321-.684-3.076-1.026-5.263-1.026-1.595 0-2.996.297-4.204.889-1.185.592-2.176 1.515-2.974 2.769-.774 1.253-1.355 2.848-1.743 4.785-.387 1.914-.581 4.192-.581 6.836v3.11c0 2.62.17 4.888.513 6.802.341 1.914.888 3.498 1.64 4.75.775 1.254 1.766 2.188 2.974 2.803 1.208.616 2.677.923 4.41.923 1.982 0 3.634-.307 4.955-.923a6.748 6.748 0 0 0 3.042-2.87c.707-1.277 1.117-2.883 1.23-4.82Z"/><path fill="#BCFFAB" d="m60.468 17.643 10.208 6.367 10.211-6.367-10.21-6.363-10.209 6.363Z"/><path fill="#F4B0FF" d="m60.468 30.179 10.21 6.265V23.913l-10.21-6.268v12.534Z"/><path fill="#FFB68C" d="M80.887 30.179V17.645l-10.206 6.268v12.531l10.206-6.265Z"/></svg>