<svg width="277" height="285" viewBox="0 0 277 285" fill="none" xmlns="http://www.w3.org/2000/svg">
<path d="M138.792 99.168C136.911 103.044 134.005 110.515 134.913 119.857C135.243 123.255 136.009 126.19 136.853 128.586C92.4868 190.932 63.4861 227.794 46.4206 248.639C32.966 265.074 14.087 287.241 9.8295 284.516C9.08275 284.037 8.80797 282.809 9.01163 280.83C7.71854 282.317 5.68516 282.195 4.91901 281.241C4.30803 280.481 4.39531 279.046 5.32956 277.966C3.0796 278.926 1.57638 279.062 0.826394 278.377C-4.99572 273.069 34.2042 218.397 118.426 114.362C125.215 109.296 132.003 104.234 138.792 99.168Z" fill="#3F3F3F"/>
<path d="M138.582 99.0451C134.816 106.839 133.491 115.703 135.353 124.205C135.586 125.269 135.867 126.323 136.19 127.364C136.413 128.081 136.617 128.382 136.213 129.067C135.844 129.691 135.353 130.276 134.933 130.865C133.255 133.218 131.577 135.568 129.896 137.915C126.683 142.399 123.463 146.876 120.23 151.344C109.339 166.399 98.3287 181.363 87.1403 196.198C78.8031 207.254 70.3657 218.239 61.7926 229.11C54.8745 237.884 47.8725 246.593 40.712 255.172C34.9934 262.022 29.1939 268.84 22.9386 275.209C20.6369 277.552 18.2705 279.873 15.6779 281.894C14.7436 282.621 13.7674 283.326 12.7103 283.872C12.0637 284.205 11.2685 284.58 10.5185 284.496C8.92798 284.315 9.15104 281.949 9.25448 280.83C9.27388 280.62 8.97647 280.514 8.8407 280.659C8.07131 281.477 6.85904 282.02 5.75345 281.542C4.31166 280.921 4.70605 279.14 5.5013 278.137C5.63061 277.976 5.51747 277.627 5.26531 277.733C3.9496 278.28 1.05632 279.376 0.58111 277.449C0.442104 276.886 0.506758 276.24 0.610205 275.652C0.994898 273.486 1.96794 271.41 2.91836 269.445C4.49593 266.193 6.32564 263.06 8.20708 259.973C10.8385 255.66 13.6186 251.435 16.457 247.255C20.0905 241.902 23.8276 236.616 27.6131 231.37C32.2649 224.921 36.9976 218.529 41.7724 212.174C47.4652 204.596 53.2226 197.064 59.0189 189.568C65.675 180.959 72.3829 172.389 79.1264 163.848C86.775 154.16 94.4688 144.507 102.195 134.88C106.381 129.662 110.577 124.454 114.783 119.25C115.898 117.869 116.988 116.463 118.132 115.108C119.277 113.754 120.964 112.768 122.387 111.708C125.141 109.652 127.895 107.599 130.653 105.543C133.407 103.487 136.161 101.434 138.919 99.3781C139.164 99.1938 138.925 98.7736 138.673 98.9578C132.967 103.215 127.261 107.473 121.553 111.73C120.224 112.723 118.721 113.615 117.673 114.911C116.558 116.292 115.443 117.669 114.327 119.049C112.178 121.706 110.034 124.367 107.888 127.031C99.7899 137.084 91.7275 147.164 83.7071 157.279C76.5984 166.244 69.5284 175.24 62.5102 184.276C56.4877 192.031 50.5039 199.812 44.5816 207.645C39.5289 214.327 34.5181 221.044 29.5883 227.82C25.5441 233.377 21.5517 238.97 17.6628 244.634C14.624 249.059 11.6402 253.527 8.8019 258.085C6.75236 261.376 4.76101 264.715 3.00888 268.174C1.92269 270.321 0.833263 272.561 0.267538 274.914C0.00892088 276.001 -0.294954 277.588 0.590809 278.49C1.79984 279.725 4.11447 278.732 5.39139 278.202L5.1554 277.798C4.28903 278.891 3.75887 280.795 5.11984 281.755C6.48081 282.715 8.17799 282.072 9.18013 281.005L8.76634 280.834C8.6532 282.072 8.49156 284.16 9.87516 284.819C10.4215 285.081 11.0616 285.004 11.6241 284.842C13.6865 284.26 15.513 282.689 17.1229 281.344C23.2877 276.185 28.6411 269.985 33.8975 263.933C42.3219 254.235 50.4005 244.23 58.395 234.173C66.6416 223.802 74.7525 213.322 82.7696 202.77C93.7253 188.349 104.506 173.795 115.161 159.151C121.653 150.232 128.096 141.281 134.503 132.3C134.929 131.705 135.353 131.107 135.776 130.512C135.99 130.212 136.203 129.911 136.417 129.614C136.562 129.41 137.021 128.951 137.06 128.712C137.112 128.392 136.927 128.075 136.824 127.765C136.617 127.134 136.426 126.497 136.252 125.857C135.537 123.226 135.117 120.517 135.01 117.792C134.82 113.069 135.57 108.336 137.108 103.872C137.645 102.31 138.282 100.784 138.999 99.294C139.135 99.0128 138.715 98.7671 138.579 99.0483L138.582 99.0451Z" fill="black"/>
<path d="M217.959 153.923C218.932 153.768 219.672 153.91 220.079 154.02C220.855 154.231 221.411 154.593 222.035 155C222.759 155.472 223.302 155.95 223.668 156.306C223.6 156.063 222.788 153.348 220.079 152.391C220.079 152.391 217.758 151.573 215.579 152.682C215.55 152.695 215.528 152.708 215.515 152.718C215.243 152.857 215.014 153.009 214.826 153.144" fill="black"/>
<path d="M218.023 154.156C220.154 153.843 222.019 155.048 223.496 156.474C223.668 156.639 223.968 156.474 223.9 156.238C223.606 155.204 222.995 154.218 222.236 153.464C221.149 152.394 219.763 151.887 218.256 151.858C216.982 151.832 215.738 152.188 214.7 152.934C214.448 153.115 214.69 153.536 214.946 153.355C216.627 152.145 219.08 151.968 220.884 153.034C222.097 153.749 223.047 155.016 223.432 156.371L223.836 156.135C223.011 155.339 222.045 154.609 221.007 154.114C219.969 153.62 218.964 153.532 217.891 153.691C217.584 153.736 217.713 154.205 218.02 154.159L218.023 154.156Z" fill="black"/>
<path d="M205.38 158.533C206.211 158.307 207.116 158.177 208.012 158.585C209.072 159.073 209.648 160.094 209.968 160.867C210.077 159.887 210.187 158.911 210.294 157.932C211.597 157.224 213.504 156.438 215.832 156.315C216.048 156.302 216.268 156.299 216.491 156.299C217.506 156.302 218.712 156.325 220.079 156.955C222.1 157.89 223.147 159.558 223.59 160.388L223.668 160.544C223.645 160.498 223.619 160.447 223.59 160.392C221.68 156.564 219.662 154.773 217.959 153.923C217.574 153.726 217.202 153.584 216.853 153.474C216.73 153.435 216.608 153.399 216.491 153.37C215.906 153.222 215.356 153.15 214.826 153.144H214.823C211.917 153.089 209.677 154.738 206.376 153.37C205.784 153.125 205.403 152.86 205.17 152.711C200.997 150.057 195.708 148.392 192.356 147.005C189.475 145.815 185.531 143.798 181.077 140.2L174.757 140.866C179.131 143.239 183.585 145.77 188.108 148.473C190.103 149.666 192.058 150.862 193.982 152.061C192.954 151.874 189.54 151.382 186.152 153.367C184.284 154.46 183.152 155.879 182.551 156.781L183.291 156.939C186.783 155.879 189.589 155.708 191.826 155.95H191.829" fill="black"/>
<path d="M205.445 158.766C206.447 158.504 207.478 158.443 208.364 159.067C209.004 159.519 209.434 160.217 209.735 160.932C209.842 161.187 210.178 161.148 210.21 160.867C210.32 159.888 210.43 158.911 210.537 157.932L210.417 158.142C212.767 156.875 215.55 156.225 218.217 156.645C220.548 157.014 222.414 158.595 223.458 160.664C223.6 160.942 224.017 160.696 223.878 160.418C222.233 157.143 219.75 153.587 215.841 152.983C213.747 152.659 211.807 153.461 209.748 153.636C208.565 153.736 207.388 153.558 206.305 153.07C205.358 152.643 204.504 151.993 203.593 151.499C199.843 149.456 195.763 148.221 191.861 146.53C190.112 145.774 188.418 144.894 186.786 143.912C185.793 143.314 184.827 142.68 183.883 142.014C183.353 141.639 182.832 141.258 182.318 140.863C182.043 140.653 181.772 140.443 181.504 140.226C181.371 140.123 181.248 139.974 181.077 139.955C180.812 139.922 180.476 140.019 180.214 140.045L178.365 140.239C177.236 140.359 176.108 140.478 174.977 140.595L174.763 140.617C174.544 140.64 174.411 140.944 174.64 141.07C179.722 143.828 184.736 146.701 189.682 149.695C191.082 150.542 192.475 151.402 193.865 152.265L194.053 151.822C192.068 151.463 189.986 151.576 188.072 152.226C185.722 153.021 183.731 154.602 182.351 156.652C182.266 156.778 182.351 156.975 182.496 157.007C182.7 157.053 182.903 157.098 183.107 157.14C183.411 157.201 183.676 157.072 183.973 156.991C184.972 156.71 185.984 156.484 187.009 156.325C187.885 156.189 188.767 156.112 189.653 156.092C190.384 156.08 191.111 156.186 191.839 156.186C192.152 156.186 192.152 155.701 191.839 155.701C191.131 155.701 190.423 155.595 189.711 155.608C188.874 155.621 188.04 155.695 187.209 155.808C186.252 155.941 185.302 156.138 184.368 156.38C184.012 156.474 183.572 156.684 183.236 156.671C183.039 156.665 182.819 156.581 182.625 156.539L182.771 156.894C184.106 154.913 186.058 153.387 188.338 152.646C190.128 152.065 192.075 151.951 193.927 152.288C194.189 152.336 194.357 151.997 194.114 151.845C189.191 148.774 184.196 145.819 179.134 142.984C177.724 142.195 176.312 141.416 174.893 140.647L174.77 141.099C176.771 140.889 178.772 140.676 180.773 140.466C180.854 140.456 180.999 140.411 181.077 140.433C181.109 140.443 181.035 140.459 181.041 140.462C181.171 140.52 181.3 140.669 181.413 140.76C181.652 140.95 181.895 141.138 182.14 141.322C183.12 142.069 184.125 142.78 185.157 143.449C186.847 144.548 188.609 145.544 190.432 146.404C194.072 148.121 197.952 149.265 201.582 151.007C202.633 151.512 203.664 152.055 204.656 152.663C205.548 153.209 206.395 153.71 207.43 153.959C209.486 154.45 211.409 153.762 213.433 153.474C215.457 153.186 217.332 153.639 218.955 154.799C220.49 155.892 221.66 157.45 222.604 159.063C222.911 159.587 223.193 160.124 223.467 160.667L223.888 160.421C222.921 158.504 221.25 156.946 219.158 156.354C217.91 156.002 216.527 155.989 215.243 156.122C213.96 156.254 212.609 156.613 211.374 157.146C211.089 157.269 210.811 157.398 210.537 157.541C210.233 157.696 210.087 157.738 210.045 158.09C209.938 159.018 209.838 159.943 209.735 160.87L210.21 160.806C209.858 159.968 209.373 159.18 208.616 158.65C207.624 157.955 206.444 158.003 205.325 158.297C205.025 158.378 205.151 158.844 205.455 158.766H205.445Z" fill="black"/>
<path d="M136.852 128.585C152.806 139.764 166.904 140.84 173.059 140.87C204.523 141.012 227.954 114.63 237.713 94.6417C240.587 88.755 242.236 83.5018 243.209 79.7713C243.128 76.2541 242.245 52.9397 224.782 40.6554C204.116 26.1147 175.448 37.7298 160.451 50.6768C139.904 68.418 138.621 94.1536 138.469 99.4908C137.118 102.397 135.372 107.075 134.913 113.068C134.389 119.905 135.779 125.388 136.852 128.585Z" fill="#FDFDFD"/>
<path d="M136.73 128.796C142.697 132.966 149.24 136.318 156.207 138.468C160.817 139.89 165.595 140.783 170.415 141.038C175.868 141.329 181.364 140.795 186.669 139.502C192.594 138.061 198.271 135.668 203.534 132.597C208.706 129.581 213.491 125.912 217.855 121.816C222.219 117.72 225.807 113.605 229.202 109.018C232.282 104.854 235.053 100.448 237.397 95.8252C239.01 92.6377 240.409 89.3436 241.583 85.9686C242.1 84.4783 242.575 82.9751 243.002 81.459C243.209 80.7252 243.461 80.0269 243.435 79.264C243.338 76.4095 243.012 73.5615 242.511 70.749C241.693 66.1553 240.377 61.6424 238.473 57.3817C236.188 52.2676 233.01 47.5317 228.907 43.7009C224.288 39.3852 218.602 36.3174 212.459 34.8271C206.317 33.3368 199.971 33.3853 193.8 34.4456C187.558 35.5157 181.506 37.6105 175.817 40.3777C170.57 42.9315 165.582 46.0769 161.095 49.8139C156.139 53.9421 151.885 58.8785 148.497 64.3644C145.545 69.1423 143.247 74.3179 141.576 79.6745C140.27 83.8544 139.345 88.1507 138.783 92.4922C138.589 93.9954 138.44 95.5051 138.34 97.018C138.304 97.5579 138.275 98.0945 138.252 98.6344C138.243 98.8478 138.252 99.0643 138.23 99.2745C138.191 99.6786 137.939 100.066 137.777 100.445C135.039 106.823 134.005 113.883 134.839 120.775C135.165 123.455 135.76 126.096 136.613 128.653C136.71 128.948 137.179 128.821 137.082 128.524C134.971 122.211 134.473 115.396 135.708 108.85C136.274 105.853 137.189 102.921 138.437 100.134C138.582 99.8079 138.705 99.5654 138.715 99.2131C138.721 99.0029 138.728 98.7928 138.737 98.5827C138.76 98.0396 138.789 97.4932 138.825 96.9502C139.054 93.4879 139.542 90.0418 140.257 86.6475C141.291 81.7338 142.807 76.917 144.844 72.3266C147.291 66.8116 150.495 61.6263 154.429 57.0488C158.392 52.4389 163.07 48.5144 168.174 45.2267C173.318 41.9132 178.871 39.2042 184.677 37.2613C190.483 35.3185 196.917 34.0674 203.22 34.1644C209.521 34.2614 215.786 35.7258 221.32 38.7839C226.855 41.8421 231.041 45.9282 234.377 50.9357C237.232 55.2223 239.281 60.0035 240.678 64.9495C241.712 68.6186 242.404 72.388 242.747 76.1832C242.844 77.2403 242.912 78.2974 242.944 79.3577C242.973 80.2306 242.588 81.126 242.346 81.9568C241.909 83.46 241.428 84.9471 240.901 86.4212C238.89 92.0655 236.217 97.4415 233.039 102.52C230.149 107.136 226.868 111.51 223.247 115.574C219.371 119.925 215.094 123.937 210.426 127.431C205.616 131.036 200.385 134.104 194.809 136.36C189.077 138.678 183 140.13 176.825 140.521C172.516 140.792 168.187 140.556 163.933 139.826C157.975 138.804 152.189 136.858 146.764 134.194C143.35 132.516 140.082 130.557 136.966 128.379C136.71 128.201 136.468 128.621 136.72 128.799L136.73 128.796Z" fill="black"/>
<path d="M248.019 49.1897C251.484 62.2822 245.436 73.9523 243.108 81.1128C241.657 85.5771 240.125 89.0879 239.113 91.257C230.042 89.4984 225.096 85.4834 223.053 83.1591C216.39 75.5784 213.073 61.7617 213.232 50.4181C213.27 47.7576 213.477 46.749 213.125 45.9764C213.005 45.7145 212.824 45.5076 212.824 45.5076C212.31 44.9031 211.576 44.7415 211.185 44.6898C200.278 53.0366 184.095 65.3468 164.324 80.088C117.821 114.765 85.0577 139.114 82.8821 136.567C82.1354 135.694 84.6957 131.336 100.892 114.875C97.9369 117.083 96.2332 117.969 95.7742 117.536C94.1772 116.026 107.816 98.4045 136.694 64.6776C138.155 62.9675 139.662 61.2154 141.204 59.4213C157.765 39.3914 177.578 31.1609 186.581 28.0639C186.74 28.0122 186.891 27.9605 187.04 27.9088C199.793 6.55021 220.295 -3.54232 235.537 1.51041C238.576 2.51902 244.818 5.26036 250.476 13.5846V13.5975L250.967 15.4402C251.397 18.6729 251.83 21.9056 252.26 25.1383C251.119 26.5995 249.558 28.9077 248.429 32.0014C245.691 39.5207 247.292 46.4419 248.019 49.1897Z" fill="#3F3F3F"/>
<path d="M247.786 49.2546C249.403 55.484 248.953 61.901 247.308 68.0722C246.015 72.9148 244.078 77.5602 242.459 82.2961C241.431 85.3026 240.244 88.254 238.903 91.1344L239.178 91.0245C234.558 90.1096 230.003 88.4706 226.185 85.6582C223.14 83.4147 220.948 80.3242 219.228 76.9848C216.859 72.3814 215.378 67.3254 214.467 62.2436C214.001 59.6445 213.694 57.0163 213.552 54.3817C213.423 51.9959 213.581 49.6296 213.565 47.2471C213.562 46.5973 213.484 45.9831 213.08 45.4497C212.731 44.9906 211.784 44.3085 211.147 44.454C210.846 44.5219 210.468 44.9324 210.225 45.1199C209.837 45.4173 209.45 45.7148 209.058 46.0122C208.273 46.6134 207.487 47.2115 206.702 47.8128C203.13 50.5412 199.551 53.2631 195.969 55.9819C186.96 62.819 177.924 69.6239 168.866 76.3964C158.916 83.8349 148.956 91.254 138.976 98.6537C130.778 104.731 122.564 110.793 114.288 116.767C108.24 121.134 102.165 125.476 95.9522 129.604C92.4996 131.899 88.9501 134.43 85.1032 136.037C84.5956 136.25 83.4965 136.732 83.0827 136.438C83.0116 136.389 82.989 136.231 83.0278 136.021C83.1021 135.604 83.3252 135.209 83.5288 134.847C84.4954 133.127 85.8047 131.582 87.0687 130.076C89.6225 127.03 92.3347 124.121 95.0696 121.244C97.048 119.162 99.0491 117.103 101.06 115.056C101.244 114.869 100.995 114.507 100.766 114.675C99.7441 115.435 98.7064 116.194 97.5944 116.818C97.2291 117.025 96.3692 117.614 95.9295 117.361C95.8713 117.329 95.8843 117.074 95.9295 116.857C96.1558 115.81 96.8444 114.801 97.3939 113.902C100.048 109.577 103.245 105.556 106.371 101.57C111.864 94.5611 117.547 87.7012 123.269 80.8802C127.054 76.3673 130.865 71.8739 134.69 67.3933C138.708 62.6897 142.61 57.8374 146.932 53.4086C153.876 46.2966 161.877 40.245 170.579 35.4444C173.825 33.6535 177.164 32.0371 180.581 30.6083C181.907 30.0555 183.245 29.5286 184.593 29.034C185.162 28.8238 185.734 28.6202 186.31 28.4197C186.581 28.326 186.989 28.2743 187.205 28.09C187.606 27.7441 187.916 26.9327 188.204 26.4769C193.467 18.1397 200.495 10.7012 209.097 5.78104C215.944 1.86622 224.087 -0.522752 231.994 0.877013C235.101 1.42657 238.049 2.57419 240.723 4.2455C242.627 5.43837 244.376 6.86723 245.957 8.46096C246.91 9.42108 247.802 10.4394 248.64 11.4997C249.273 12.3047 250.088 13.1322 250.353 14.1247C251.006 16.5751 251.203 19.1257 251.539 21.6343C251.643 22.4134 251.746 23.1957 251.853 23.9748C251.892 24.2592 252.073 24.825 251.969 25.1191C251.911 25.2872 251.691 25.4844 251.581 25.6331C250.903 26.5577 250.282 27.5275 249.732 28.5329C247.101 33.3464 246.215 38.9099 246.833 44.3344C247.023 45.9992 247.35 47.6415 247.777 49.2643C247.857 49.5649 248.323 49.4388 248.245 49.135C247.02 44.4896 246.703 39.6049 247.812 34.8981C248.497 31.9887 249.713 29.2311 251.381 26.7549C251.653 26.3508 251.94 25.9532 252.234 25.562C252.648 25.0189 252.403 24.4661 252.315 23.8099C252.092 22.1386 251.869 20.4673 251.646 18.7927C251.484 17.5804 251.407 16.3165 251.122 15.1268C251.006 14.6322 250.857 13.8596 250.689 13.5008C250.385 12.8575 249.823 12.2497 249.39 11.684C248.989 11.157 248.575 10.643 248.148 10.1387C247.282 9.1172 246.361 8.14415 245.381 7.23253C242.74 4.77567 239.669 2.76815 236.275 1.52356C229.153 -1.08524 221.236 -0.112197 214.331 2.69057C205.525 6.25948 198.019 12.6376 192.164 20.0373C190.535 22.0965 189.022 24.2463 187.629 26.4704C187.28 27.0297 187.047 27.6536 186.397 27.8766C186.113 27.9736 185.831 28.0738 185.55 28.174C184.929 28.3939 184.309 28.6234 183.691 28.8562C180.568 30.0361 177.501 31.3712 174.507 32.8486C165.995 37.0479 158.062 42.4239 151.028 48.7923C146.518 52.8784 142.584 57.4366 138.627 62.0464C134.483 66.8761 130.355 71.7187 126.252 76.5807C119.981 84.0127 113.748 91.4835 107.7 99.103C104.192 103.522 100.643 107.97 97.5717 112.706C97.2582 113.188 94.0158 117.904 96.1364 117.895C96.6892 117.895 97.2808 117.546 97.7495 117.287C98.8939 116.657 99.9575 115.874 101.005 115.095L100.711 114.714C97.0319 118.454 93.3821 122.227 89.8682 126.125C87.9512 128.252 86.0406 130.412 84.3467 132.723C83.9458 133.27 81.1819 136.845 83.3187 137C84.253 137.068 85.2939 136.499 86.1053 136.114C87.8057 135.303 89.4318 134.33 91.0352 133.341C96.4758 129.992 101.713 126.31 106.927 122.621C114.592 117.2 122.169 111.656 129.728 106.089C139.316 99.0287 148.865 91.9135 158.411 84.7983C168.333 77.4018 178.244 69.9924 188.117 62.5346C195.584 56.8935 203.036 51.2298 210.468 45.5434C210.82 45.2751 211.072 44.9551 211.509 45.01C212.146 45.0876 212.76 45.6566 212.96 46.2482C213.219 47.0046 213.06 47.9389 213.031 48.7179C212.928 51.3074 212.986 53.9 213.209 56.4829C213.655 61.6003 214.674 66.7015 216.377 71.5506C217.884 75.834 219.943 80.1108 223.017 83.4987C225.329 86.0461 228.4 87.8984 231.539 89.2368C233.95 90.2648 236.472 90.9889 239.042 91.4997C239.139 91.5191 239.268 91.49 239.317 91.3898C241.554 86.586 243.144 81.5591 244.99 76.6001C246.975 71.2661 248.753 65.8287 249.196 60.1197C249.483 56.428 249.176 52.72 248.245 49.1317C248.168 48.8311 247.699 48.9572 247.777 49.261L247.786 49.2546Z" fill="black"/>
<path d="M100.856 115.253C108.541 108.904 116.222 102.555 123.906 96.2062C131.548 89.8895 139.19 83.576 146.832 77.2593C151.151 73.6904 155.47 70.1215 159.789 66.5526C160.028 66.3521 159.685 66.0127 159.446 66.2099C151.762 72.5589 144.081 78.908 136.397 85.257C128.755 91.5738 121.113 97.8873 113.471 104.204C109.152 107.773 104.833 111.342 100.514 114.911C100.275 115.111 100.617 115.451 100.856 115.253Z" fill="black"/>
<path d="M83.2613 136.534C89.2289 131.527 95.1932 126.519 101.161 121.512C107.128 116.505 113.093 111.497 119.06 106.49C125.028 101.482 130.992 96.4746 136.96 91.4672C142.928 86.4597 148.892 81.4522 154.859 76.4447C160.801 71.4567 166.746 66.4686 172.688 61.4805C173.438 60.8534 174.185 60.223 174.935 59.5958C175.174 59.3954 174.828 59.0527 174.592 59.2532C168.624 64.2606 162.66 69.2681 156.692 74.2756C150.725 79.2831 144.76 84.2905 138.793 89.298C132.825 94.3055 126.861 99.313 120.893 104.32C114.926 109.328 108.961 114.335 102.994 119.343C97.0262 124.35 91.1071 129.319 85.1654 134.307C84.4154 134.934 83.6686 135.565 82.9186 136.192C82.6794 136.392 83.0253 136.735 83.2613 136.534Z" fill="black"/>
<path d="M166.578 134.606C167.392 135.895 169.678 139.513 170.492 140.803C173.651 145.804 176.803 150.805 179.951 155.809C180.52 156.1 181.416 156.504 182.56 156.789C186.158 157.681 188.486 156.465 192.672 155.809C196.189 155.259 198.859 154.839 201.481 155.809C202.955 156.355 206.033 157.939 208.331 163.312C207.753 162.536 206.709 161.343 205.07 160.377C204.407 159.986 201.446 158.243 198.055 158.909C195.882 159.336 195.297 160.409 192.834 160.542C191.592 160.61 190.564 160.399 189.898 160.215C190.238 160.868 191.052 162.662 190.551 164.783C190.396 165.442 190.147 165.989 189.898 166.416C189.84 165.443 189.588 163.875 188.431 162.989C187.962 162.63 187.383 162.362 184.189 162.336C180.734 162.307 180.026 162.404 178.969 162.009C177.53 161.473 176.583 160.454 176.033 159.727C175.206 159.895 173.767 160.183 171.957 160.542C169.371 161.056 168.892 161.146 168.207 161.356C167.04 161.715 165.365 162.394 163.477 163.804C164.098 162.737 165.53 160.619 168.207 159.074C170.143 157.956 171.967 157.584 173.101 157.442C169.403 149.395 165.708 141.349 162.01 133.303C162.375 133.186 163.403 132.915 164.619 133.303C165.682 133.642 166.322 134.308 166.574 134.609L166.578 134.606Z" fill="black"/>
<path d="M166.37 134.728C170.718 141.611 175.063 148.496 179.401 155.385C179.524 155.582 179.644 155.877 179.831 156.019C179.974 156.126 180.18 156.193 180.342 156.265C180.769 156.459 181.208 156.633 181.655 156.779C182.599 157.086 183.578 157.283 184.57 157.331C186.391 157.425 188.169 156.982 189.934 156.588C192.138 156.096 194.395 155.699 196.648 155.524C198.364 155.392 200.1 155.489 201.707 156.151C204.823 157.441 206.837 160.444 208.127 163.432L208.548 163.186C207.151 161.33 205.244 159.943 203.065 159.148C201.655 158.634 200.126 158.392 198.633 158.573C197.922 158.657 197.23 158.835 196.567 159.109C196.024 159.332 195.507 159.614 194.964 159.833C193.383 160.47 191.602 160.419 189.972 159.979C189.759 159.921 189.604 160.15 189.698 160.335C190.664 162.213 190.758 164.424 189.698 166.289L190.15 166.412C190.069 165.155 189.743 163.784 188.747 162.927C188.262 162.507 187.703 162.339 187.076 162.248C185.582 162.035 184.05 162.087 182.547 162.083C181.606 162.083 180.614 162.155 179.686 161.961C178.289 161.67 177.103 160.713 176.253 159.601C176.182 159.507 176.094 159.465 175.978 159.491C174.003 159.888 172.028 160.276 170.052 160.674C168.889 160.91 167.78 161.194 166.684 161.663C165.501 162.168 164.395 162.83 163.364 163.593L163.697 163.926C165.691 160.519 169.183 158.178 173.111 157.684C173.301 157.661 173.401 157.499 173.321 157.318C170.44 151.053 167.563 144.785 164.683 138.52C163.865 136.739 163.047 134.961 162.229 133.18L162.084 133.535C163.648 133.05 165.346 133.539 166.416 134.777C166.619 135.013 166.962 134.67 166.758 134.434C165.582 133.07 163.674 132.533 161.954 133.067C161.793 133.115 161.744 133.28 161.809 133.422C164.689 139.687 167.566 145.955 170.447 152.22C171.265 154.002 172.083 155.78 172.9 157.561L173.111 157.196C169.008 157.713 165.368 160.112 163.277 163.677C163.163 163.874 163.406 164.159 163.61 164.01C165.284 162.772 167.166 161.802 169.205 161.346C171.494 160.832 173.809 160.419 176.11 159.956L175.836 159.846C176.663 160.929 177.714 161.822 179.013 162.277C179.683 162.513 180.391 162.549 181.095 162.562C182.634 162.591 184.173 162.543 185.708 162.614C186.465 162.649 187.396 162.639 188.078 163.031C189.232 163.693 189.591 165.177 189.668 166.409C189.681 166.638 189.995 166.752 190.121 166.532C191.269 164.511 191.168 162.125 190.121 160.089L189.846 160.444C191.214 160.813 192.688 160.926 194.078 160.616C195.258 160.354 196.263 159.665 197.411 159.316C199.913 158.56 202.612 159.223 204.823 160.503C206.11 161.249 207.238 162.239 208.134 163.428C208.321 163.68 208.677 163.47 208.554 163.183C207.329 160.344 205.476 157.551 202.674 156.067C199.59 154.432 196.069 155.026 192.775 155.544C190.777 155.857 188.828 156.426 186.827 156.72C184.826 157.015 182.825 156.766 180.947 155.993C180.737 155.906 180.526 155.812 180.323 155.712C180.119 155.612 180.035 155.466 179.912 155.269C179.569 154.723 179.224 154.176 178.881 153.633C178.192 152.54 177.507 151.451 176.818 150.358C175.5 148.267 174.181 146.175 172.862 144.084C170.841 140.88 168.817 137.676 166.794 134.476C166.629 134.214 166.209 134.457 166.374 134.722L166.37 134.728Z" fill="black"/>
<path d="M199.771 155.139C199.373 155.271 198.917 155.494 198.795 155.934C198.733 156.15 198.782 156.367 198.888 156.561C199.014 156.791 199.215 156.988 199.406 157.166C199.69 157.434 199.994 157.686 200.288 157.941C200.763 158.352 201.232 158.772 201.681 159.212C201.904 159.428 202.25 159.086 202.024 158.869C201.571 158.433 201.106 158.013 200.631 157.599C200.304 157.317 199.968 157.043 199.658 156.739C199.564 156.648 199.441 156.519 199.383 156.438C199.351 156.393 199.322 156.348 199.296 156.299C199.267 156.244 199.289 156.293 199.276 156.26C199.267 156.235 199.26 156.212 199.254 156.186C199.241 156.131 199.254 156.228 199.254 156.176C199.254 156.15 199.254 156.128 199.254 156.102C199.25 156.167 199.254 156.092 199.26 156.076C199.273 156.044 199.279 156.018 199.299 155.986C199.422 155.782 199.687 155.682 199.9 155.611C200.194 155.51 200.068 155.042 199.771 155.142V155.139Z" fill="black"/>
<path d="M190.073 160.039C189.398 159.283 188.295 159.102 187.416 159.619C187.08 159.816 186.715 160.175 186.718 160.599C186.718 160.844 186.87 161.084 186.989 161.29C187.319 161.859 187.691 162.406 188.063 162.946C188.237 163.201 188.657 162.959 188.483 162.7C188.185 162.267 187.891 161.827 187.613 161.381C187.51 161.216 187.406 161.048 187.316 160.877C187.29 160.828 187.264 160.776 187.241 160.725C187.225 160.686 187.251 160.76 187.232 160.699C187.225 160.679 187.219 160.66 187.212 160.644C187.209 160.631 187.206 160.615 187.203 160.602C187.203 160.602 187.196 160.66 187.203 160.618C187.209 160.582 187.216 160.528 187.199 160.602C187.245 160.414 187.338 160.279 187.49 160.156C187.836 159.874 188.35 159.739 188.79 159.823C189.158 159.894 189.485 160.104 189.734 160.382C189.941 160.615 190.283 160.272 190.077 160.039H190.073Z" fill="black"/>
<path d="M5.53669 278.089C13.5668 267.401 21.5936 256.714 29.6236 246.027C37.686 235.294 45.7484 224.565 53.8108 213.832C61.8409 203.145 69.8677 192.457 77.8978 181.77C85.9602 171.037 94.0225 160.308 102.085 149.575C110.115 138.888 118.142 128.201 126.172 117.513C127.158 116.201 128.147 114.885 129.133 113.573C129.321 113.324 128.9 113.081 128.713 113.327C120.683 124.014 112.656 134.702 104.626 145.389C96.5635 156.122 88.5011 166.851 80.4387 177.584C72.4086 188.271 64.3818 198.958 56.3517 209.646C48.2893 220.378 40.227 231.108 32.1646 241.84C24.1345 252.528 16.1077 263.215 8.07761 273.902C7.09163 275.215 6.10242 276.531 5.11644 277.843C4.92894 278.092 5.3492 278.334 5.53669 278.089Z" fill="black"/>
<path d="M9.2217 280.953C10.2529 279.611 11.2842 278.266 12.3154 276.925C15.1214 273.272 17.9306 269.619 20.7366 265.966C24.8616 260.596 28.9865 255.23 33.1115 249.86C38.1707 243.275 43.2299 236.694 48.289 230.108C53.8299 222.896 59.374 215.684 64.9149 208.472C70.4946 201.211 76.071 193.954 81.6507 186.693C86.8521 179.924 92.0535 173.155 97.255 166.385C101.661 160.65 106.067 154.916 110.474 149.181C113.632 145.069 116.79 140.96 119.952 136.848C121.449 134.902 122.945 132.952 124.442 131.006C124.507 130.922 124.571 130.838 124.636 130.754C124.827 130.509 124.407 130.266 124.216 130.509C123.185 131.85 122.153 133.195 121.122 134.537C118.316 138.189 115.507 141.842 112.701 145.495C108.576 150.865 104.451 156.231 100.326 161.601C95.2669 168.186 90.2076 174.768 85.1485 181.353C79.6076 188.565 74.0635 195.777 68.5226 202.989C62.9429 210.25 57.3665 217.507 51.7868 224.768C46.5854 231.537 41.384 238.307 36.1825 245.076C31.7763 250.811 27.3702 256.546 22.964 262.28C19.8056 266.392 16.6472 270.501 13.4856 274.613C11.9889 276.559 10.4922 278.509 8.99541 280.455C8.93075 280.539 8.8661 280.623 8.80144 280.707C8.61071 280.953 9.03097 281.195 9.2217 280.953Z" fill="black"/>
<path d="M209.139 41.005C208.263 44.5578 194.793 39.4695 177.216 46.3261C168.394 49.7689 166.775 53.0048 151.025 59.8323C143.548 63.0715 139.251 64.3614 136.694 64.6782C138.156 62.9681 139.662 61.2159 141.204 59.4218C157.765 39.3919 177.578 31.1614 186.582 28.0645C187.189 28.1744 187.82 28.3101 187.859 28.3198C199.05 30.7282 209.931 37.8014 209.139 41.005Z" fill="#FDFDFD"/>
<path d="M208.907 40.9398C208.655 41.9193 207.245 42.0389 206.408 42.1165C204.43 42.2911 202.422 42.1876 200.437 42.1844C193.952 42.1715 187.506 42.7954 181.277 44.6704C178.555 45.4915 175.882 46.513 173.328 47.7705C171.647 48.5981 170.027 49.5356 168.424 50.5022C166.607 51.5948 164.8 52.6972 162.951 53.7349C160.313 55.2155 157.61 56.5765 154.866 57.8501C151.416 59.4536 147.915 60.9632 144.346 62.2822C142.21 63.071 140.031 63.8177 137.794 64.2606C137.428 64.3317 137.063 64.3964 136.695 64.4416L136.866 64.8554C139.504 61.7682 142.09 58.6195 144.838 55.6293C147.308 52.9397 149.926 50.389 152.674 47.9839C157.481 43.7781 162.689 40.0379 168.197 36.8052C172.41 34.3321 176.8 32.1565 181.322 30.3074C182.948 29.6415 184.594 29.0208 186.255 28.4421C186.53 28.3452 186.676 28.3322 186.97 28.3904C187.316 28.4583 187.658 28.5294 188.001 28.607C188.89 28.8042 189.773 29.0273 190.649 29.2762C192.427 29.7805 194.179 30.3882 195.892 31.0833C198.944 32.3214 201.924 33.8343 204.624 35.7287C205.626 36.4302 206.596 37.1963 207.446 38.0756C208.011 38.6608 208.6 39.3396 208.849 40.1284C208.933 40.3935 208.972 40.6715 208.907 40.9463C208.836 41.2502 209.305 41.3795 209.376 41.0756C209.531 40.4032 209.269 39.7275 208.923 39.1586C208.399 38.2955 207.662 37.5584 206.906 36.8957C204.666 34.927 202.021 33.4044 199.351 32.0983C196.012 30.4658 192.491 29.1695 188.877 28.3064C188.528 28.2223 188.176 28.1447 187.823 28.0671C187.442 27.9863 186.963 27.7988 186.579 27.8247C186.223 27.8473 185.8 28.0801 185.463 28.2029C184.642 28.4971 183.824 28.7977 183.01 29.1145C178.616 30.8117 174.343 32.8095 170.224 35.0886C164.729 38.1306 159.511 41.6704 154.659 45.6596C151.837 47.9807 149.144 50.4537 146.59 53.0657C143.758 55.9655 141.175 59.0786 138.537 62.1529C137.865 62.9384 137.189 63.724 136.517 64.5095C136.397 64.6485 136.459 64.9524 136.688 64.9233C138.654 64.6744 140.574 64.0925 142.446 63.4621C145.798 62.3339 149.066 60.9632 152.299 59.5376C157.523 57.2295 162.56 54.6045 167.447 51.653C169.08 50.6671 170.712 49.6714 172.403 48.7824C174.569 47.6412 176.825 46.6811 179.137 45.8762C185.667 43.5971 192.494 42.7113 199.387 42.6726C201.52 42.6596 203.66 42.7598 205.794 42.6467C206.838 42.5917 208.344 42.5529 209.075 41.6607C209.217 41.4894 209.314 41.2889 209.369 41.0724C209.447 40.7685 208.981 40.6424 208.9 40.943L208.907 40.9398Z" fill="black"/>
<path d="M245.973 13.9951C247.993 13.1675 251.275 13.5781 257.84 14.4057C268.179 15.7052 271.482 17.4509 273.8 19.3162C275.132 20.3894 276.076 21.4498 276.664 22.1804C272.62 23.0887 268.25 23.8905 263.572 24.4917C253.829 25.7493 244.984 25.8689 237.374 25.4519C237.914 23.4088 240.009 16.4358 245.97 13.9919L245.973 13.9951Z" fill="black"/>
<path d="M246.038 14.2284C247.544 13.6206 249.29 13.75 250.874 13.8663C253.89 14.0862 256.909 14.4902 259.9 14.9267C262.457 15.2984 265.017 15.751 267.497 16.4784C269.003 16.918 270.484 17.4676 271.845 18.2564C273.642 19.2973 275.194 20.7455 276.496 22.3522L276.603 21.9481C271.392 23.1184 266.116 24.0009 260.805 24.5828C255.493 25.1647 250.399 25.4298 245.181 25.4298C242.579 25.4298 239.976 25.3554 237.377 25.2164L237.61 25.5235C238.499 22.1679 240.07 18.8286 242.64 16.4363C243.636 15.5118 244.78 14.7553 246.035 14.2316C246.319 14.112 246.193 13.6433 245.905 13.7629C241.809 15.4665 239.22 19.3199 237.768 23.3705C237.529 24.0365 237.322 24.7089 237.141 25.391C237.099 25.5494 237.219 25.6884 237.374 25.6981C242.194 25.9599 247.027 25.9825 251.847 25.7595C257.294 25.5073 262.725 24.9448 268.107 24.0785C270.998 23.613 273.871 23.0569 276.726 22.4169C276.92 22.3748 276.939 22.1421 276.833 22.0128C275.604 20.4999 274.153 19.1292 272.498 18.0915C271.224 17.293 269.821 16.7144 268.395 16.2521C266.035 15.4892 263.585 15.0172 261.141 14.6325C258.028 14.1411 254.882 13.7435 251.743 13.459C249.862 13.2877 247.706 13.042 245.905 13.7661C245.621 13.8825 245.744 14.3512 246.035 14.2349L246.038 14.2284Z" fill="black"/>
<path d="M238.343 25.2838C242.19 23.947 246.165 22.9294 250.221 22.2596C255.792 21.3389 261.492 21.0339 267.145 21.3218C270.353 21.4871 273.548 21.8491 276.702 22.3964C277 22.4477 277.13 22.0373 276.829 21.9831C270.91 20.9598 264.865 20.5836 258.848 20.9C254.367 21.1365 249.898 21.7351 245.547 22.747C243.058 23.3256 240.61 24.0382 238.213 24.8705C237.931 24.9674 238.055 25.3836 238.34 25.2838H238.343Z" fill="white"/>
<path d="M230.084 19.4847C231.4 19.4847 232.466 18.4181 232.466 17.1022C232.466 15.7864 231.4 14.7197 230.084 14.7197C228.768 14.7197 227.701 15.7864 227.701 17.1022C227.701 18.4181 228.768 19.4847 230.084 19.4847Z" fill="black"/>
<path d="M232.224 17.1017C232.211 17.9907 231.661 18.8118 230.814 19.1157C229.967 19.4196 228.998 19.1545 228.425 18.4562C227.853 17.7579 227.792 16.7687 228.248 16.0058C228.703 15.2429 229.609 14.8323 230.478 14.9972C231.49 15.1912 232.211 16.0802 232.227 17.1017C232.23 17.412 232.715 17.4153 232.712 17.1017C232.696 16.009 232.03 15.0328 231.005 14.6416C229.98 14.2504 228.762 14.5769 228.063 15.4271C227.365 16.2774 227.265 17.4961 227.831 18.4433C228.396 19.3905 229.499 19.8721 230.575 19.6782C231.81 19.4551 232.696 18.3366 232.712 17.0985C232.715 16.7849 232.23 16.7849 232.227 17.0985L232.224 17.1017Z" fill="black"/>
</svg>
