<svg width="949" height="359" viewBox="0 0 949 359" fill="none" xmlns="http://www.w3.org/2000/svg">
<path d="M327.885 93.4198C379.965 85.0366 409.113 81.0593 459.658 94.5094C336.484 79.9845 238.387 106.718 265.657 177.143C285.87 137.589 403.994 142.559 450.994 141.435C308.494 151.468 287.355 156.562 262.482 186.742C249.386 226.479 263.481 244.761 354.395 265.105C372.018 203.956 425.198 196.341 464.744 203.956C409.595 203.075 384.232 212.672 360.094 268.112C360.094 268.112 368.446 296.555 409.828 309.714C469.25 319.209 614.674 255.165 730.077 221.628C747.23 216.643 939.983 206.734 947.626 209.455V55.34C899.889 64.772 778.85 67.5406 763.115 55.34C739.795 59.9675 741.238 67.4532 716.431 64.772C716.431 64.772 722.267 55.2959 721.74 49.1978C701.145 44.5001 627.601 107.262 527.962 79.9845C422.023 41.9893 379.934 57.2772 327.885 93.4198Z" fill="black"/>
<path fill-rule="evenodd" clip-rule="evenodd" d="M654.858 74.1014C621.323 85.8367 577.785 94.7695 527.671 81.0499C527.643 81.0424 527.616 81.0339 527.59 81.0243C474.693 62.0528 437.873 56.4358 407.845 59.9974C379.405 63.3707 356.938 74.9907 332.554 91.5521C381.689 83.7057 410.759 80.3543 459.942 93.4419C460.502 93.5909 460.852 94.1474 460.743 94.7166C460.634 95.2858 460.104 95.6742 459.529 95.6064C398.014 88.3525 342.901 91.4235 306.629 105.005C288.495 111.794 275.199 121.162 268.092 133.046C261.318 144.372 260.067 158.149 265.866 174.529C271.55 165.364 282.468 158.775 296.17 153.992C310.94 148.837 329.168 145.703 348.169 143.779C376.557 140.903 406.844 140.713 430.113 140.566C437.982 140.517 445.049 140.472 450.968 140.331C451.568 140.316 452.07 140.784 452.098 141.383C452.126 141.982 451.671 142.495 451.072 142.537C379.791 147.556 338.984 151.334 312.886 157.608C299.86 160.739 290.556 164.48 282.982 169.275C275.465 174.034 269.596 179.865 263.466 187.285C260.257 197.074 258.764 205.424 259.631 212.76C260.497 220.096 263.735 226.505 270.179 232.379C276.655 238.284 286.381 243.658 300.224 248.831C313.852 253.925 331.398 258.799 353.626 263.8C362.623 233.535 380.387 216.36 400.92 207.726C421.626 199.019 445.045 199.038 464.953 202.871C465.515 202.98 465.902 203.5 465.843 204.07C465.784 204.64 465.299 205.07 464.727 205.061C437.179 204.621 417.311 206.812 401.335 215.875C385.461 224.88 373.25 240.776 361.274 268.169C361.34 268.363 361.436 268.63 361.564 268.963C361.862 269.737 362.336 270.867 363.034 272.27C364.431 275.075 366.723 278.969 370.293 283.273C377.416 291.863 389.652 302.122 410.084 308.636C424.719 310.954 444.75 308.77 468.472 303.593C492.21 298.412 519.523 290.263 548.617 280.758C570.138 273.727 592.642 265.952 615.379 258.095C654.061 244.73 693.42 231.131 729.769 220.567C732.025 219.911 737.019 219.203 743.918 218.464C750.861 217.719 759.84 216.933 770.146 216.139C790.759 214.551 816.709 212.929 842.358 211.549C868.007 210.169 893.363 209.029 912.786 208.404C922.497 208.092 930.733 207.908 936.784 207.888C939.808 207.878 942.297 207.908 944.157 207.985C945.086 208.023 945.87 208.074 946.492 208.138C946.502 208.139 946.511 208.14 946.521 208.141V56.6791C922.344 61.2689 880.907 64.2167 843.38 64.5568C824.263 64.73 806.126 64.2269 791.769 62.9135C784.593 62.257 778.338 61.396 773.367 60.3089C768.748 59.2987 765.09 58.0642 762.856 56.5187C754.305 58.2547 749.226 60.3598 744.777 62.2035C743.391 62.7778 742.067 63.3268 740.717 63.8314C734.876 66.0159 728.858 67.2262 716.312 65.8702C715.935 65.8295 715.606 65.5984 715.439 65.258C715.272 64.9176 715.292 64.5155 715.49 64.1929L715.491 64.1922L715.493 64.1883L715.504 64.1703L715.527 64.132L715.55 64.095C715.59 64.0277 715.65 63.9267 715.727 63.7951C715.881 63.532 716.102 63.1471 716.366 62.6653C716.894 61.7007 717.593 60.3536 718.274 58.8227C719.526 56.0079 720.635 52.7537 720.669 50.1308C718.465 49.8551 715.56 50.2871 711.896 51.3515C707.787 52.5451 702.887 54.4823 697.216 56.8798C694.714 57.9374 692.066 59.083 689.278 60.2893C679.46 64.5363 667.904 69.5359 654.858 74.1014ZM360.094 268.112L359.034 268.424C358.961 268.175 358.977 267.909 359.081 267.671C371.19 239.86 383.69 223.344 400.245 213.953C413.392 206.495 428.983 203.598 448.706 202.948C433.19 201.838 416.724 203.477 401.776 209.762C381.651 218.225 364.178 235.149 355.456 265.411C355.294 265.972 354.724 266.311 354.154 266.183C331.404 261.092 313.421 256.122 299.451 250.901C285.491 245.683 275.465 240.189 268.69 234.012C261.883 227.806 258.37 220.922 257.437 213.019C256.509 205.164 258.139 196.391 261.433 186.397C261.475 186.266 261.542 186.145 261.629 186.04C267.888 178.445 273.959 172.373 281.8 167.408C289.639 162.446 299.189 158.628 312.37 155.46C334.061 150.245 365.738 146.756 416.088 142.883C395.396 143.092 371.291 143.657 348.392 145.977C329.461 147.894 311.43 151.005 296.898 156.078C282.328 161.163 271.496 168.144 266.64 177.646C266.442 178.034 266.035 178.269 265.6 178.246C265.165 178.224 264.784 177.948 264.627 177.542C257.713 159.687 258.7 144.444 266.196 131.912C273.661 119.43 287.476 109.817 305.854 102.936C339.246 90.4329 388.133 86.7857 443.04 91.6769C402.208 83.1389 374.212 87.0815 328.06 94.5104C327.551 94.5923 327.053 94.3111 326.86 93.8329C326.667 93.3547 326.831 92.8066 327.255 92.5125C353.333 74.404 377.047 61.4256 407.585 57.8035C438.091 54.1852 475.274 59.9181 528.295 78.9303C577.803 92.4727 620.841 83.6649 654.128 72.0161C667.091 67.4797 678.55 62.5224 688.361 58.2786C691.161 57.0671 693.827 55.9137 696.356 54.8449C702.032 52.4453 707.035 50.4629 711.28 49.23C715.491 48.0064 719.123 47.4678 721.986 48.1208C722.454 48.2276 722.8 48.6244 722.841 49.1027C723.131 52.4584 721.689 56.5812 720.292 59.7207C719.58 61.3211 718.853 62.7241 718.303 63.7268C718.282 63.7667 718.26 63.8059 718.239 63.8444C729.344 64.8849 734.733 63.7107 739.944 61.7621C741.218 61.2857 742.496 60.7557 743.852 60.1934C748.402 58.3065 753.826 56.0571 762.901 54.2565C763.214 54.1943 763.54 54.2711 763.792 54.4671C765.547 55.8276 768.941 57.0796 773.839 58.1507C778.686 59.2106 784.841 60.0612 791.971 60.7135C806.226 62.0177 824.283 62.5205 843.36 62.3477C881.529 62.0018 923.643 58.9527 947.412 54.2564C947.736 54.1923 948.072 54.2768 948.327 54.4866C948.583 54.6964 948.731 55.0095 948.731 55.34V209.455C948.731 209.814 948.556 210.151 948.263 210.358C947.969 210.565 947.594 210.616 947.256 210.496C947.155 210.46 946.854 210.396 946.265 210.335C945.707 210.278 944.973 210.23 944.066 210.192C942.255 210.118 939.802 210.087 936.791 210.097C930.771 210.118 922.56 210.3 912.857 210.612C893.454 211.236 868.116 212.375 842.477 213.755C816.838 215.135 790.906 216.755 770.315 218.342C760.019 219.135 751.065 219.919 744.154 220.66C737.199 221.406 732.417 222.098 730.385 222.689C694.077 233.24 654.829 246.802 616.193 260.152C593.442 268.013 570.904 275.801 549.303 282.858C520.188 292.369 492.791 300.546 468.943 305.751C445.124 310.95 424.724 313.212 409.654 310.805C409.6 310.796 409.546 310.783 409.494 310.766C388.591 304.12 375.981 293.594 368.592 284.684C364.901 280.233 362.519 276.193 361.056 273.254C360.325 271.785 359.823 270.591 359.502 269.757C359.342 269.34 359.227 269.014 359.151 268.788C359.113 268.675 359.084 268.587 359.065 268.526C359.056 268.495 359.048 268.472 359.043 268.454L359.037 268.434L359.035 268.427L359.034 268.425C359.034 268.424 359.034 268.424 360.094 268.112Z" fill="black"/>
<path fill-rule="evenodd" clip-rule="evenodd" d="M130.932 2.58287C131.4 1.43774 132.533 0.706858 133.769 0.753212L474.622 13.5352C476.076 13.5897 477.271 14.6964 477.438 16.141L482.643 61.2316L476.79 61.9072L471.876 19.3276L143.076 6.99759L286.662 113.186L283.159 117.923L134.953 8.31762L9.42193 315.629L261.41 187.924L264.073 193.179L14.6097 319.604L509.503 352.735L502.833 298.039L508.681 297.326L515.782 355.555C515.888 356.427 515.6 357.3 514.997 357.937C514.393 358.575 513.537 358.91 512.661 358.851L3.51156 324.766C2.56724 324.702 1.71082 324.189 1.20963 323.386C0.708437 322.584 0.623538 321.589 0.981432 320.713L130.932 2.58287Z" fill="black"/>
</svg>
