<svg width="422" height="160" viewBox="0 0 422 160" fill="none" xmlns="http://www.w3.org/2000/svg">
<path d="M145.898 41.9224C169.037 38.1978 181.987 36.4308 204.443 42.4064C149.719 35.9533 106.136 47.8306 118.252 79.1194C127.232 61.5461 179.713 63.7541 200.594 63.2547C137.283 67.7124 127.892 69.9756 116.841 83.3841C111.023 101.038 117.285 109.161 157.677 118.199C165.506 91.0319 189.133 87.6487 206.703 91.0319C182.201 90.6405 170.933 94.9043 160.208 119.536C160.208 119.536 163.919 132.172 182.305 138.018C208.705 142.237 273.315 113.783 324.586 98.8832C332.207 96.6685 417.844 92.2663 421.24 93.4751V25.0041C400.031 29.1946 346.255 30.4246 339.265 25.0041C328.904 27.06 329.545 30.3858 318.524 29.1946C318.524 29.1946 321.116 24.9845 320.883 22.2752C311.732 20.1881 279.058 48.0724 234.79 35.9533C187.723 19.0726 169.023 25.8648 145.898 41.9224Z" fill="black"/>
<path fill-rule="evenodd" clip-rule="evenodd" d="M291.167 33.3395C276.269 38.5533 256.925 42.522 234.66 36.4266C234.648 36.4233 234.636 36.4195 234.624 36.4153C211.123 27.9865 194.764 25.491 181.424 27.0733C168.788 28.572 158.806 33.7346 147.973 41.0926C169.803 37.6065 182.718 36.1176 204.57 41.9322C204.818 41.9984 204.974 42.2456 204.925 42.4985C204.877 42.7514 204.642 42.924 204.386 42.8938C177.056 39.6711 152.57 41.0354 136.455 47.0693C128.398 50.0859 122.491 54.2477 119.334 59.5275C116.324 64.5596 115.768 70.6806 118.344 77.958C120.87 73.8861 125.72 70.9586 131.808 68.8337C138.37 66.5432 146.469 65.1512 154.911 64.2961C167.523 63.0185 180.979 62.9339 191.317 62.8688C194.813 62.8468 197.953 62.827 200.583 62.7641C200.849 62.7578 201.072 62.9653 201.085 63.2317C201.097 63.498 200.895 63.7256 200.629 63.7443C168.96 65.9741 150.83 67.6526 139.235 70.4401C133.448 71.8313 129.314 73.4935 125.949 75.6237C122.609 77.7378 120.002 80.3288 117.278 83.6251C115.852 87.9741 115.189 91.684 115.574 94.9433C115.959 98.2028 117.398 101.05 120.261 103.66C123.138 106.283 127.459 108.671 133.609 110.969C139.664 113.232 147.46 115.398 157.335 117.62C161.332 104.174 169.225 96.5427 178.347 92.7068C187.546 88.8385 197.951 88.8469 206.796 90.55C207.046 90.5982 207.217 90.8293 207.191 91.0825C207.165 91.3356 206.95 91.5267 206.695 91.5226C194.456 91.3271 185.629 92.3006 178.531 96.3271C171.479 100.328 166.053 107.391 160.733 119.561C160.762 119.647 160.805 119.766 160.862 119.914C160.994 120.257 161.205 120.759 161.515 121.383C162.135 122.629 163.154 124.359 164.74 126.271C167.905 130.088 173.341 134.646 182.419 137.54C188.92 138.57 197.82 137.599 208.359 135.299C218.906 132.997 231.04 129.377 243.966 125.154C253.528 122.03 263.526 118.576 273.628 115.085C290.814 109.147 308.3 103.105 324.449 98.412C325.452 98.1206 327.67 97.8061 330.736 97.4775C333.82 97.1468 337.809 96.7974 342.388 96.4446C351.546 95.739 363.076 95.0186 374.471 94.4053C385.867 93.7921 397.132 93.2857 405.761 93.0082C410.075 92.8695 413.734 92.7879 416.423 92.7789C417.766 92.7743 418.873 92.7879 419.699 92.822C420.112 92.839 420.46 92.8613 420.736 92.8898C420.74 92.8903 420.745 92.8908 420.749 92.8912V25.599C410.007 27.6382 391.598 28.9479 374.925 29.099C366.432 29.176 358.374 28.9524 351.995 28.3689C348.807 28.0772 346.028 27.6947 343.819 27.2117C341.767 26.7629 340.142 26.2145 339.15 25.5278C335.35 26.2991 333.094 27.2343 331.117 28.0535C330.502 28.3086 329.913 28.5525 329.314 28.7767C326.718 29.7473 324.045 30.285 318.471 29.6825C318.303 29.6644 318.157 29.5618 318.083 29.4105C318.009 29.2593 318.017 29.0806 318.106 28.9373L318.106 28.937L318.107 28.9353L318.112 28.9273L318.122 28.9103L318.132 28.8938C318.15 28.8639 318.177 28.819 318.211 28.7606C318.279 28.6437 318.377 28.4727 318.495 28.2587C318.729 27.8301 319.04 27.2316 319.342 26.5514C319.899 25.3009 320.392 23.8551 320.406 22.6897C319.427 22.5673 318.137 22.7592 316.509 23.2321C314.683 23.7624 312.506 24.623 309.987 25.6882C308.875 26.1581 307.699 26.6671 306.46 27.203C302.098 29.0899 296.964 31.3111 291.167 33.3395ZM160.208 119.536L159.738 119.674C159.705 119.563 159.713 119.445 159.758 119.34C165.138 106.983 170.692 99.6458 178.047 95.4734C183.888 92.1598 190.815 90.873 199.577 90.5839C192.684 90.0908 185.368 90.8191 178.727 93.6116C169.786 97.3713 162.023 104.89 158.148 118.335C158.076 118.585 157.823 118.735 157.569 118.678C147.462 116.417 139.472 114.208 133.266 111.889C127.063 109.571 122.61 107.13 119.599 104.385C116.575 101.628 115.014 98.5695 114.6 95.0584C114.187 91.5688 114.911 87.6709 116.375 83.2305C116.394 83.1727 116.424 83.1189 116.462 83.072C119.243 79.6979 121.94 76.9999 125.424 74.7944C128.906 72.5898 133.149 70.8935 139.005 69.4857C148.642 67.1689 162.716 65.619 185.086 63.8981C175.893 63.991 165.183 64.2421 155.009 65.2726C146.599 66.1246 138.588 67.5068 132.132 69.7604C125.659 72.0198 120.846 75.1212 118.689 79.3427C118.601 79.515 118.42 79.6195 118.226 79.6095C118.033 79.5996 117.864 79.477 117.794 79.2966C114.722 71.3637 115.161 64.5916 118.491 59.0237C121.808 53.4782 127.945 49.2073 136.111 46.1501C150.946 40.5953 172.666 38.975 197.06 41.148C178.919 37.3547 166.481 39.1064 145.976 42.4069C145.75 42.4433 145.529 42.3184 145.443 42.1059C145.358 41.8934 145.43 41.65 145.619 41.5193C157.205 33.474 167.74 27.7079 181.308 26.0986C194.862 24.4911 211.381 27.0381 234.938 35.4849C256.933 41.5016 276.054 37.5884 290.843 32.4131C296.603 30.3976 301.694 28.1952 306.052 26.3097C307.297 25.7715 308.481 25.259 309.604 24.7842C312.126 23.718 314.349 22.8373 316.235 22.2895C318.106 21.7459 319.72 21.5066 320.992 21.7968C321.2 21.8442 321.353 22.0205 321.371 22.233C321.5 23.7239 320.86 25.5556 320.239 26.9504C319.923 27.6614 319.6 28.2848 319.355 28.7303C319.346 28.748 319.336 28.7654 319.327 28.7825C324.261 29.2448 326.655 28.7231 328.97 27.8574C329.536 27.6457 330.104 27.4102 330.706 27.1604C332.728 26.3221 335.138 25.3227 339.169 24.5228C339.309 24.4951 339.453 24.5292 339.566 24.6163C340.345 25.2208 341.853 25.777 344.029 26.2529C346.182 26.7238 348.917 27.1017 352.085 27.3915C358.418 27.9709 366.441 28.1943 374.916 28.1175C391.874 27.9639 410.585 26.6092 421.145 24.5227C421.289 24.4942 421.438 24.5318 421.551 24.625C421.665 24.7182 421.731 24.8573 421.731 25.0041V93.4751C421.731 93.6346 421.653 93.7842 421.523 93.8761C421.392 93.9681 421.226 93.991 421.075 93.9375C421.03 93.9215 420.897 93.8932 420.635 93.8662C420.387 93.8406 420.061 93.8193 419.658 93.8027C418.853 93.7695 417.764 93.7559 416.426 93.7604C413.752 93.7694 410.103 93.8506 405.793 93.9892C397.172 94.2664 385.915 94.7724 374.524 95.3854C363.133 95.9985 351.612 96.7183 342.464 97.4232C337.889 97.7757 333.911 98.1242 330.84 98.4534C327.75 98.7847 325.626 99.0922 324.723 99.3545C308.592 104.042 291.155 110.068 273.989 115.999C263.881 119.492 253.868 122.952 244.271 126.087C231.336 130.313 219.164 133.946 208.569 136.258C197.986 138.568 188.923 139.573 182.227 138.503C182.203 138.499 182.179 138.494 182.156 138.486C172.869 135.533 167.267 130.857 163.984 126.898C162.344 124.92 161.286 123.126 160.636 121.82C160.311 121.167 160.088 120.637 159.946 120.266C159.875 120.081 159.823 119.936 159.79 119.836C159.773 119.785 159.76 119.747 159.752 119.719C159.747 119.706 159.744 119.695 159.742 119.688L159.739 119.678L159.738 119.676L159.738 119.675C159.738 119.674 159.738 119.674 160.208 119.536Z" fill="black"/>
<path fill-rule="evenodd" clip-rule="evenodd" d="M58.3954 1.56494C58.6032 1.05618 59.1067 0.73146 59.6559 0.752055L211.092 6.43089C211.737 6.4551 212.269 6.94681 212.343 7.5886L214.655 29.7243L212.055 32.0465L209.871 9.00435L63.7908 3.52633L127.584 50.7043L126.028 52.8088L60.1819 4.1128L4.41039 140.646L116.365 83.9093L117.548 86.244L6.71525 142.413L226.589 157.132L223.625 129.95L226.223 131.182L229.378 158.385C229.425 158.772 229.298 159.16 229.029 159.443C228.761 159.726 228.381 159.875 227.992 159.849L1.78451 144.706C1.36496 144.678 0.984467 144.45 0.761797 144.093C0.539126 143.736 0.501407 143.294 0.660414 142.905L58.3954 1.56494Z" fill="black"/>
</svg>
